<svg width="958" height="305" viewBox="0 0 958 305" fill="none" xmlns="http://www.w3.org/2000/svg">
<g filter="url(#filter0_d_1_3)">
<mask id="path-1-outside-1_1_3" maskUnits="userSpaceOnUse" x="-11" y="-10" width="975" height="317" fill="black">
<rect fill="white" x="-11" y="-10" width="975" height="317"/>
<path d="M6 74.6V67.55L25.95 63.95V73.7C26.05 79 27.4 83 30 85.7C32.7 88.3 36.25 89.6 40.65 89.6C44.95 89.6 48.35 88.2 50.85 85.4C53.45 82.6 54.75 78.85 54.75 74.15V0.649992H75.45V74.15C75.45 83.95 72.2 92.25 65.7 99.05C59.2 105.85 50.9 109.25 40.8 109.25C30.3 109.25 21.85 106.1 15.45 99.8C9.15 93.4 6 85 6 74.6ZM166.695 107L157.845 82.7H114.645L105.795 107H83.8945L124.695 0.649992H148.695L189.195 107H166.695ZM136.245 23.6L121.545 63.8H150.945L136.245 23.6ZM223.496 87.8H239.996C249.296 87.8 256.946 84.9 262.946 79.1C268.946 73.3 271.946 64.9 271.946 53.9C271.946 42.9 268.946 34.5 262.946 28.7C256.946 22.8 249.346 19.85 240.146 19.85H223.496V87.8ZM240.746 107H202.796V0.649992H240.896C256.396 0.649992 268.996 5.39999 278.696 14.9C288.496 24.4 293.396 37.4 293.396 53.9C293.396 70.3 288.496 83.25 278.696 92.75C268.896 102.25 256.246 107 240.746 107ZM332.041 87.8H348.541C357.841 87.8 365.491 84.9 371.491 79.1C377.491 73.3 380.491 64.9 380.491 53.9C380.491 42.9 377.491 34.5 371.491 28.7C365.491 22.8 357.891 19.85 348.691 19.85H332.041V87.8ZM349.291 107H311.341V0.649992H349.441C364.941 0.649992 377.541 5.39999 387.241 14.9C397.041 24.4 401.941 37.4 401.941 53.9C401.941 70.3 397.041 83.25 387.241 92.75C377.441 102.25 364.791 107 349.291 107ZM87.3 297L78.45 272.7H35.25L26.4 297H4.5L45.3 190.65H69.3L109.8 297H87.3ZM56.85 213.6L42.15 253.8H71.55L56.85 213.6ZM191.502 297H123.402V190.65H144.102V277.2H191.502V297ZM242.068 261.3H198.568V243.6H242.068V261.3ZM325.751 297L294.851 252.9L281.651 267.45V297H260.951V190.65H281.651V238.8L324.251 190.65H351.401L309.251 237L351.701 297H325.751ZM453.587 297H432.737V252.9H386.387V297H365.687V190.65H386.387V233.4H432.737V190.65H453.587V297ZM550.044 297L541.194 272.7H497.994L489.144 297H467.244L508.044 190.65H532.044L572.544 297H550.044ZM519.594 213.6L504.894 253.8H534.294L519.594 213.6ZM586.146 190.65H624.396C634.496 190.65 642.396 193.3 648.096 198.6C653.896 203.9 656.796 210.8 656.796 219.3C656.796 224.7 655.346 229.5 652.446 233.7C649.546 237.8 645.846 240.6 641.346 242.1C646.746 243.4 651.196 246.35 654.696 250.95C658.296 255.45 660.096 260.9 660.096 267.3C660.096 276 657.096 283.15 651.096 288.75C645.096 294.25 637.146 297 627.246 297H586.146V190.65ZM606.546 234.6H621.246C625.946 234.6 629.646 233.4 632.346 231C635.046 228.6 636.396 225.35 636.396 221.25C636.396 217.15 635.046 213.95 632.346 211.65C629.746 209.25 625.996 208.05 621.096 208.05H606.546V234.6ZM606.546 279.75H623.346C628.346 279.75 632.246 278.55 635.046 276.15C637.946 273.65 639.396 270.25 639.396 265.95C639.396 261.65 637.996 258.2 635.196 255.6C632.496 253 628.646 251.7 623.646 251.7H606.546V279.75ZM677.699 190.65H715.949C726.049 190.65 733.949 193.3 739.649 198.6C745.449 203.9 748.349 210.8 748.349 219.3C748.349 224.7 746.899 229.5 743.999 233.7C741.099 237.8 737.399 240.6 732.899 242.1C738.299 243.4 742.749 246.35 746.249 250.95C749.849 255.45 751.649 260.9 751.649 267.3C751.649 276 748.649 283.15 742.649 288.75C736.649 294.25 728.699 297 718.799 297H677.699V190.65ZM698.099 234.6H712.799C717.499 234.6 721.199 233.4 723.899 231C726.599 228.6 727.949 225.35 727.949 221.25C727.949 217.15 726.599 213.95 723.899 211.65C721.299 209.25 717.549 208.05 712.649 208.05H698.099V234.6ZM698.099 279.75H714.899C719.899 279.75 723.799 278.55 726.599 276.15C729.499 273.65 730.949 270.25 730.949 265.95C730.949 261.65 729.549 258.2 726.749 255.6C724.049 253 720.199 251.7 715.199 251.7H698.099V279.75ZM838.911 297L830.061 272.7H786.861L778.011 297H756.111L796.911 190.65H820.911L861.411 297H838.911ZM808.461 213.6L793.761 253.8H823.161L808.461 213.6ZM953.732 297H870.032V276.9L925.382 210.3H871.982V190.65H952.982V210L896.732 277.2H953.732V297Z"/>
</mask>
<path d="M6 74.6V67.55L25.95 63.95V73.7C26.05 79 27.4 83 30 85.7C32.7 88.3 36.25 89.6 40.65 89.6C44.95 89.6 48.35 88.2 50.85 85.4C53.45 82.6 54.75 78.85 54.75 74.15V0.649992H75.45V74.15C75.45 83.95 72.2 92.25 65.7 99.05C59.2 105.85 50.9 109.25 40.8 109.25C30.3 109.25 21.85 106.1 15.45 99.8C9.15 93.4 6 85 6 74.6ZM166.695 107L157.845 82.7H114.645L105.795 107H83.8945L124.695 0.649992H148.695L189.195 107H166.695ZM136.245 23.6L121.545 63.8H150.945L136.245 23.6ZM223.496 87.8H239.996C249.296 87.8 256.946 84.9 262.946 79.1C268.946 73.3 271.946 64.9 271.946 53.9C271.946 42.9 268.946 34.5 262.946 28.7C256.946 22.8 249.346 19.85 240.146 19.85H223.496V87.8ZM240.746 107H202.796V0.649992H240.896C256.396 0.649992 268.996 5.39999 278.696 14.9C288.496 24.4 293.396 37.4 293.396 53.9C293.396 70.3 288.496 83.25 278.696 92.75C268.896 102.25 256.246 107 240.746 107ZM332.041 87.8H348.541C357.841 87.8 365.491 84.9 371.491 79.1C377.491 73.3 380.491 64.9 380.491 53.9C380.491 42.9 377.491 34.5 371.491 28.7C365.491 22.8 357.891 19.85 348.691 19.85H332.041V87.8ZM349.291 107H311.341V0.649992H349.441C364.941 0.649992 377.541 5.39999 387.241 14.9C397.041 24.4 401.941 37.4 401.941 53.9C401.941 70.3 397.041 83.25 387.241 92.75C377.441 102.25 364.791 107 349.291 107ZM87.3 297L78.45 272.7H35.25L26.4 297H4.5L45.3 190.65H69.3L109.8 297H87.3ZM56.85 213.6L42.15 253.8H71.55L56.85 213.6ZM191.502 297H123.402V190.65H144.102V277.2H191.502V297ZM242.068 261.3H198.568V243.6H242.068V261.3ZM325.751 297L294.851 252.9L281.651 267.45V297H260.951V190.65H281.651V238.8L324.251 190.65H351.401L309.251 237L351.701 297H325.751ZM453.587 297H432.737V252.9H386.387V297H365.687V190.65H386.387V233.4H432.737V190.65H453.587V297ZM550.044 297L541.194 272.7H497.994L489.144 297H467.244L508.044 190.65H532.044L572.544 297H550.044ZM519.594 213.6L504.894 253.8H534.294L519.594 213.6ZM586.146 190.65H624.396C634.496 190.65 642.396 193.3 648.096 198.6C653.896 203.9 656.796 210.8 656.796 219.3C656.796 224.7 655.346 229.5 652.446 233.7C649.546 237.8 645.846 240.6 641.346 242.1C646.746 243.4 651.196 246.35 654.696 250.95C658.296 255.45 660.096 260.9 660.096 267.3C660.096 276 657.096 283.15 651.096 288.75C645.096 294.25 637.146 297 627.246 297H586.146V190.65ZM606.546 234.6H621.246C625.946 234.6 629.646 233.4 632.346 231C635.046 228.6 636.396 225.35 636.396 221.25C636.396 217.15 635.046 213.95 632.346 211.65C629.746 209.25 625.996 208.05 621.096 208.05H606.546V234.6ZM606.546 279.75H623.346C628.346 279.75 632.246 278.55 635.046 276.15C637.946 273.65 639.396 270.25 639.396 265.95C639.396 261.65 637.996 258.2 635.196 255.6C632.496 253 628.646 251.7 623.646 251.7H606.546V279.75ZM677.699 190.65H715.949C726.049 190.65 733.949 193.3 739.649 198.6C745.449 203.9 748.349 210.8 748.349 219.3C748.349 224.7 746.899 229.5 743.999 233.7C741.099 237.8 737.399 240.6 732.899 242.1C738.299 243.4 742.749 246.35 746.249 250.95C749.849 255.45 751.649 260.9 751.649 267.3C751.649 276 748.649 283.15 742.649 288.75C736.649 294.25 728.699 297 718.799 297H677.699V190.65ZM698.099 234.6H712.799C717.499 234.6 721.199 233.4 723.899 231C726.599 228.6 727.949 225.35 727.949 221.25C727.949 217.15 726.599 213.95 723.899 211.65C721.299 209.25 717.549 208.05 712.649 208.05H698.099V234.6ZM698.099 279.75H714.899C719.899 279.75 723.799 278.55 726.599 276.15C729.499 273.65 730.949 270.25 730.949 265.95C730.949 261.65 729.549 258.2 726.749 255.6C724.049 253 720.199 251.7 715.199 251.7H698.099V279.75ZM838.911 297L830.061 272.7H786.861L778.011 297H756.111L796.911 190.65H820.911L861.411 297H838.911ZM808.461 213.6L793.761 253.8H823.161L808.461 213.6ZM953.732 297H870.032V276.9L925.382 210.3H871.982V190.65H952.982V210L896.732 277.2H953.732V297Z" fill="white"/>
<path d="M6 67.55L4.22417 57.7089L-4 59.193V67.55H6ZM25.95 63.95H35.95V51.984L24.1742 54.1089L25.95 63.95ZM25.95 73.7H15.95V73.7943L15.9518 73.8886L25.95 73.7ZM30 85.7L22.7968 92.6364L22.9277 92.7723L23.0636 92.9032L30 85.7ZM50.85 85.4L43.5221 78.5955L43.4556 78.667L43.3906 78.7398L50.85 85.4ZM54.75 0.649992V-9.35001H44.75V0.649992H54.75ZM75.45 0.649992H85.45V-9.35001H75.45V0.649992ZM15.45 99.8L8.32348 106.815L8.37871 106.871L8.43483 106.927L15.45 99.8ZM16 74.6V67.55H-4V74.6H16ZM7.77583 77.3911L27.7258 73.7911L24.1742 54.1089L4.22417 57.7089L7.77583 77.3911ZM15.95 63.95V73.7H35.95V63.95H15.95ZM15.9518 73.8886C16.0797 80.6658 17.8377 87.4866 22.7968 92.6364L37.2032 78.7636C36.9623 78.5134 36.0204 77.3342 35.9482 73.5114L15.9518 73.8886ZM23.0636 92.9032C27.9474 97.6061 34.145 99.6 40.65 99.6V79.6C38.355 79.6 37.4526 78.9939 36.9364 78.4968L23.0636 92.9032ZM40.65 99.6C47.3401 99.6 53.6268 97.3047 58.3094 92.0602L43.3906 78.7398C43.0732 79.0953 42.5599 79.6 40.65 79.6V99.6ZM58.1779 92.2045C62.8697 87.1519 64.75 80.7644 64.75 74.15H44.75C44.75 76.9356 44.0304 78.0481 43.5221 78.5955L58.1779 92.2045ZM64.75 74.15V0.649992H44.75V74.15H64.75ZM54.75 10.65H75.45V-9.35001H54.75V10.65ZM65.45 0.649992V74.15H85.45V0.649992H65.45ZM65.45 74.15C65.45 81.495 63.112 87.2853 58.4713 92.1402L72.9287 105.96C81.288 97.2147 85.45 86.405 85.45 74.15H65.45ZM58.4713 92.1402C54.0074 96.8101 48.3937 99.25 40.8 99.25V119.25C53.4063 119.25 64.3926 114.89 72.9287 105.96L58.4713 92.1402ZM40.8 99.25C32.4468 99.25 26.6794 96.8219 22.4652 92.6735L8.43483 106.927C17.0206 115.378 28.1532 119.25 40.8 119.25V99.25ZM22.5765 92.7848C18.4099 88.5521 16 82.823 16 74.6H-4C-4 87.177 -0.109936 98.2479 8.32348 106.815L22.5765 92.7848ZM166.695 107L157.298 110.422L159.694 117H166.695V107ZM157.845 82.7L167.241 79.2779L164.845 72.7H157.845V82.7ZM114.645 82.7V72.7H107.644L105.248 79.2779L114.645 82.7ZM105.795 107V117H112.795L115.191 110.422L105.795 107ZM83.8945 107L74.558 103.418L69.3475 117H83.8945V107ZM124.695 0.649992V-9.35001H117.82L115.358 -2.93186L124.695 0.649992ZM148.695 0.649992L158.04 -2.90886L155.587 -9.35001H148.695V0.649992ZM189.195 107V117H203.703L198.54 103.441L189.195 107ZM136.245 23.6L145.636 20.1657L136.245 -5.51796L126.853 20.1657L136.245 23.6ZM121.545 63.8L112.153 60.3657L107.24 73.8H121.545V63.8ZM150.945 63.8V73.8H165.249L160.336 60.3657L150.945 63.8ZM176.091 103.578L167.241 79.2779L148.448 86.1221L157.298 110.422L176.091 103.578ZM157.845 72.7H114.645V92.7H157.845V72.7ZM105.248 79.2779L96.3983 103.578L115.191 110.422L124.041 86.1221L105.248 79.2779ZM105.795 97H83.8945V117H105.795V97ZM93.231 110.582L134.031 4.23184L115.358 -2.93186L74.558 103.418L93.231 110.582ZM124.695 10.65H148.695V-9.35001H124.695V10.65ZM139.349 4.20885L179.849 110.559L198.54 103.441L158.04 -2.90886L139.349 4.20885ZM189.195 97H166.695V117H189.195V97ZM126.853 20.1657L112.153 60.3657L130.936 67.2343L145.636 27.0343L126.853 20.1657ZM121.545 73.8H150.945V53.8H121.545V73.8ZM160.336 60.3657L145.636 20.1657L126.853 27.0343L141.553 67.2343L160.336 60.3657ZM223.496 87.8H213.496V97.8H223.496V87.8ZM262.946 79.1L255.996 71.9101L255.996 71.9101L262.946 79.1ZM262.946 28.7L255.935 35.8302L255.966 35.8602L255.996 35.8899L262.946 28.7ZM223.496 19.85V9.85H213.496V19.85H223.496ZM202.796 107H192.796V117H202.796V107ZM202.796 0.649992V-9.35001H192.796V0.649992H202.796ZM278.696 14.9L271.699 22.0443L271.718 22.0623L271.736 22.0801L278.696 14.9ZM278.696 92.75L271.736 85.5699L271.736 85.5699L278.696 92.75ZM223.496 97.8H239.996V77.8H223.496V97.8ZM239.996 97.8C251.567 97.8 261.812 94.1052 269.897 86.2899L255.996 71.9101C252.081 75.6948 247.026 77.8 239.996 77.8V97.8ZM269.897 86.2899C278.41 78.0608 281.946 66.7115 281.946 53.9H261.946C261.946 63.0885 259.483 68.5392 255.996 71.9101L269.897 86.2899ZM281.946 53.9C281.946 41.0885 278.41 29.7392 269.897 21.5101L255.996 35.8899C259.483 39.2608 261.946 44.7115 261.946 53.9H281.946ZM269.958 21.5698C261.904 13.6505 251.701 9.85 240.146 9.85V29.85C246.992 29.85 251.989 31.9495 255.935 35.8302L269.958 21.5698ZM240.146 9.85H223.496V29.85H240.146V9.85ZM213.496 19.85V87.8H233.496V19.85H213.496ZM240.746 97H202.796V117H240.746V97ZM212.796 107V0.649992H192.796V107H212.796ZM202.796 10.65H240.896V-9.35001H202.796V10.65ZM240.896 10.65C254.182 10.65 264.137 14.6377 271.699 22.0443L285.694 7.75566C273.856 -3.83769 258.611 -9.35001 240.896 -9.35001V10.65ZM271.736 22.0801C279.197 29.3125 283.396 39.4995 283.396 53.9H303.396C303.396 35.3005 297.796 19.4875 285.657 7.71988L271.736 22.0801ZM283.396 53.9C283.396 68.1804 279.209 78.3259 271.736 85.5699L285.657 99.9301C297.784 88.1741 303.396 72.4196 303.396 53.9H283.396ZM271.736 85.5699C264.059 93.012 254.03 97 240.746 97V117C258.463 117 273.734 111.488 285.657 99.9301L271.736 85.5699ZM332.041 87.8H322.041V97.8H332.041V87.8ZM371.491 79.1L364.541 71.9101L364.541 71.9101L371.491 79.1ZM371.491 28.7L364.48 35.8302L364.51 35.8602L364.541 35.8899L371.491 28.7ZM332.041 19.85V9.85H322.041V19.85H332.041ZM311.341 107H301.341V117H311.341V107ZM311.341 0.649992V-9.35001H301.341V0.649992H311.341ZM387.241 14.9L380.244 22.0443L380.263 22.0623L380.281 22.0801L387.241 14.9ZM387.241 92.75L380.281 85.5699L380.281 85.5699L387.241 92.75ZM332.041 97.8H348.541V77.8H332.041V97.8ZM348.541 97.8C360.112 97.8 370.357 94.1052 378.442 86.2899L364.541 71.9101C360.626 75.6948 355.571 77.8 348.541 77.8V97.8ZM378.442 86.2899C386.954 78.0608 390.491 66.7115 390.491 53.9H370.491C370.491 63.0885 368.028 68.5392 364.541 71.9101L378.442 86.2899ZM390.491 53.9C390.491 41.0885 386.954 29.7392 378.442 21.5101L364.541 35.8899C368.028 39.2608 370.491 44.7115 370.491 53.9H390.491ZM378.503 21.5698C370.449 13.6505 360.246 9.85 348.691 9.85V29.85C355.537 29.85 360.534 31.9495 364.48 35.8302L378.503 21.5698ZM348.691 9.85H332.041V29.85H348.691V9.85ZM322.041 19.85V87.8H342.041V19.85H322.041ZM349.291 97H311.341V117H349.291V97ZM321.341 107V0.649992H301.341V107H321.341ZM311.341 10.65H349.441V-9.35001H311.341V10.65ZM349.441 10.65C362.727 10.65 372.682 14.6377 380.244 22.0443L394.238 7.75566C382.401 -3.83769 367.156 -9.35001 349.441 -9.35001V10.65ZM380.281 22.0801C387.742 29.3125 391.941 39.4995 391.941 53.9H411.941C411.941 35.3005 406.341 19.4875 394.202 7.71988L380.281 22.0801ZM391.941 53.9C391.941 68.1804 387.754 78.3259 380.281 85.5699L394.202 99.9301C406.329 88.1741 411.941 72.4196 411.941 53.9H391.941ZM380.281 85.5699C372.604 93.012 362.575 97 349.291 97V117C367.008 117 382.279 111.488 394.202 99.9301L380.281 85.5699ZM87.3 297L77.9038 300.422L80.2994 307H87.3V297ZM78.45 272.7L87.8462 269.278L85.4506 262.7H78.45V272.7ZM35.25 272.7V262.7H28.2494L25.8538 269.278L35.25 272.7ZM26.4 297V307H33.4006L35.7962 300.422L26.4 297ZM4.5 297L-4.83651 293.418L-10.047 307H4.5V297ZM45.3 190.65V180.65H38.4257L35.9635 187.068L45.3 190.65ZM69.3 190.65L78.6453 187.091L76.1924 180.65H69.3V190.65ZM109.8 297V307H124.309L119.145 293.441L109.8 297ZM56.85 213.6L66.2418 210.166L56.85 184.482L47.4582 210.166L56.85 213.6ZM42.15 253.8L32.7582 250.366L27.8457 263.8H42.15V253.8ZM71.55 253.8V263.8H85.8543L80.9418 250.366L71.55 253.8ZM96.6962 293.578L87.8462 269.278L69.0538 276.122L77.9038 300.422L96.6962 293.578ZM78.45 262.7H35.25V282.7H78.45V262.7ZM25.8538 269.278L17.0038 293.578L35.7962 300.422L44.6462 276.122L25.8538 269.278ZM26.4 287H4.5V307H26.4V287ZM13.8365 300.582L54.6365 194.232L35.9635 187.068L-4.83651 293.418L13.8365 300.582ZM45.3 200.65H69.3V180.65H45.3V200.65ZM59.9547 194.209L100.455 300.559L119.145 293.441L78.6453 187.091L59.9547 194.209ZM109.8 287H87.3V307H109.8V287ZM47.4582 210.166L32.7582 250.366L51.5418 257.234L66.2418 217.034L47.4582 210.166ZM42.15 263.8H71.55V243.8H42.15V263.8ZM80.9418 250.366L66.2418 210.166L47.4582 217.034L62.1582 257.234L80.9418 250.366ZM191.502 297V307H201.502V297H191.502ZM123.402 297H113.402V307H123.402V297ZM123.402 190.65V180.65H113.402V190.65H123.402ZM144.102 190.65H154.102V180.65H144.102V190.65ZM144.102 277.2H134.102V287.2H144.102V277.2ZM191.502 277.2H201.502V267.2H191.502V277.2ZM191.502 287H123.402V307H191.502V287ZM133.402 297V190.65H113.402V297H133.402ZM123.402 200.65H144.102V180.65H123.402V200.65ZM134.102 190.65V277.2H154.102V190.65H134.102ZM144.102 287.2H191.502V267.2H144.102V287.2ZM181.502 277.2V297H201.502V277.2H181.502ZM242.068 261.3V271.3H252.068V261.3H242.068ZM198.568 261.3H188.568V271.3H198.568V261.3ZM198.568 243.6V233.6H188.568V243.6H198.568ZM242.068 243.6H252.068V233.6H242.068V243.6ZM242.068 251.3H198.568V271.3H242.068V251.3ZM208.568 261.3V243.6H188.568V261.3H208.568ZM198.568 253.6H242.068V233.6H198.568V253.6ZM232.068 243.6V261.3H252.068V243.6H232.068ZM325.751 297L317.561 302.738L320.547 307H325.751V297ZM294.851 252.9L303.04 247.162L295.856 236.909L287.444 246.181L294.851 252.9ZM281.651 267.45L274.244 260.731L271.651 263.59V267.45H281.651ZM281.651 297V307H291.651V297H281.651ZM260.951 297H250.951V307H260.951V297ZM260.951 190.65V180.65H250.951V190.65H260.951ZM281.651 190.65H291.651V180.65H281.651V190.65ZM281.651 238.8H271.651V265.194L289.14 245.426L281.651 238.8ZM324.251 190.65V180.65H319.746L316.761 184.024L324.251 190.65ZM351.401 190.65L358.799 197.378L374.011 180.65H351.401V190.65ZM309.251 237L301.852 230.272L296.447 236.216L301.087 242.776L309.251 237ZM351.701 297V307H371.026L359.864 291.224L351.701 297ZM333.94 291.262L303.04 247.162L286.661 258.638L317.561 302.738L333.94 291.262ZM287.444 246.181L274.244 260.731L289.057 274.169L302.257 259.619L287.444 246.181ZM271.651 267.45V297H291.651V267.45H271.651ZM281.651 287H260.951V307H281.651V287ZM270.951 297V190.65H250.951V297H270.951ZM260.951 200.65H281.651V180.65H260.951V200.65ZM271.651 190.65V238.8H291.651V190.65H271.651ZM289.14 245.426L331.74 197.276L316.761 184.024L274.161 232.174L289.14 245.426ZM324.251 200.65H351.401V180.65H324.251V200.65ZM344.002 183.922L301.852 230.272L316.649 243.728L358.799 197.378L344.002 183.922ZM301.087 242.776L343.537 302.776L359.864 291.224L317.414 231.224L301.087 242.776ZM351.701 287H325.751V307H351.701V287ZM453.587 297V307H463.587V297H453.587ZM432.737 297H422.737V307H432.737V297ZM432.737 252.9H442.737V242.9H432.737V252.9ZM386.387 252.9V242.9H376.387V252.9H386.387ZM386.387 297V307H396.387V297H386.387ZM365.687 297H355.687V307H365.687V297ZM365.687 190.65V180.65H355.687V190.65H365.687ZM386.387 190.65H396.387V180.65H386.387V190.65ZM386.387 233.4H376.387V243.4H386.387V233.4ZM432.737 233.4V243.4H442.737V233.4H432.737ZM432.737 190.65V180.65H422.737V190.65H432.737ZM453.587 190.65H463.587V180.65H453.587V190.65ZM453.587 287H432.737V307H453.587V287ZM442.737 297V252.9H422.737V297H442.737ZM432.737 242.9H386.387V262.9H432.737V242.9ZM376.387 252.9V297H396.387V252.9H376.387ZM386.387 287H365.687V307H386.387V287ZM375.687 297V190.65H355.687V297H375.687ZM365.687 200.65H386.387V180.65H365.687V200.65ZM376.387 190.65V233.4H396.387V190.65H376.387ZM386.387 243.4H432.737V223.4H386.387V243.4ZM442.737 233.4V190.65H422.737V233.4H442.737ZM432.737 200.65H453.587V180.65H432.737V200.65ZM443.587 190.65V297H463.587V190.65H443.587ZM550.044 297L540.648 300.422L543.044 307H550.044V297ZM541.194 272.7L550.59 269.278L548.195 262.7H541.194V272.7ZM497.994 272.7V262.7H490.994L488.598 269.278L497.994 272.7ZM489.144 297V307H496.145L498.54 300.422L489.144 297ZM467.244 297L457.908 293.418L452.697 307H467.244V297ZM508.044 190.65V180.65H501.17L498.708 187.068L508.044 190.65ZM532.044 190.65L541.389 187.091L538.937 180.65H532.044V190.65ZM572.544 297V307H587.053L581.889 293.441L572.544 297ZM519.594 213.6L528.986 210.166L519.594 184.482L510.202 210.166L519.594 213.6ZM504.894 253.8L495.502 250.366L490.59 263.8H504.894V253.8ZM534.294 253.8V263.8H548.598L543.686 250.366L534.294 253.8ZM559.44 293.578L550.59 269.278L531.798 276.122L540.648 300.422L559.44 293.578ZM541.194 262.7H497.994V282.7H541.194V262.7ZM488.598 269.278L479.748 293.578L498.54 300.422L507.39 276.122L488.598 269.278ZM489.144 287H467.244V307H489.144V287ZM476.581 300.582L517.381 194.232L498.708 187.068L457.908 293.418L476.581 300.582ZM508.044 200.65H532.044V180.65H508.044V200.65ZM522.699 194.209L563.199 300.559L581.889 293.441L541.389 187.091L522.699 194.209ZM572.544 287H550.044V307H572.544V287ZM510.202 210.166L495.502 250.366L514.286 257.234L528.986 217.034L510.202 210.166ZM504.894 263.8H534.294V243.8H504.894V263.8ZM543.686 250.366L528.986 210.166L510.202 217.034L524.902 257.234L543.686 250.366ZM586.146 190.65V180.65H576.146V190.65H586.146ZM648.096 198.6L641.287 205.923L641.318 205.953L641.35 205.982L648.096 198.6ZM652.446 233.7L660.61 239.475L660.643 239.428L660.675 239.382L652.446 233.7ZM641.346 242.1L638.184 232.613L605.067 243.652L639.006 251.822L641.346 242.1ZM654.696 250.95L646.738 257.005L646.811 257.102L646.887 257.197L654.696 250.95ZM651.096 288.75L657.853 296.122L657.886 296.091L657.919 296.061L651.096 288.75ZM586.146 297H576.146V307H586.146V297ZM606.546 234.6H596.546V244.6H606.546V234.6ZM632.346 231L625.702 223.526L625.702 223.526L632.346 231ZM632.346 211.65L625.563 218.998L625.71 219.133L625.861 219.262L632.346 211.65ZM606.546 208.05V198.05H596.546V208.05H606.546ZM606.546 279.75H596.546V289.75H606.546V279.75ZM635.046 276.15L641.554 283.743L641.565 283.733L641.575 283.724L635.046 276.15ZM635.196 255.6L628.26 262.803L628.325 262.866L628.392 262.928L635.196 255.6ZM606.546 251.7V241.7H596.546V251.7H606.546ZM586.146 200.65H624.396V180.65H586.146V200.65ZM624.396 200.65C632.745 200.65 637.936 202.808 641.287 205.923L654.906 191.277C646.856 183.792 636.247 180.65 624.396 180.65V200.65ZM641.35 205.982C644.894 209.221 646.796 213.351 646.796 219.3H666.796C666.796 208.249 662.898 198.579 654.842 191.218L641.35 205.982ZM646.796 219.3C646.796 222.795 645.895 225.588 644.217 228.018L660.675 239.382C664.797 233.412 666.796 226.605 666.796 219.3H646.796ZM644.282 227.925C642.535 230.396 640.541 231.827 638.184 232.613L644.508 251.587C651.151 249.373 656.558 245.204 660.61 239.475L644.282 227.925ZM639.006 251.822C642.07 252.56 644.571 254.157 646.738 257.005L662.654 244.895C657.821 238.543 651.422 234.24 643.687 232.378L639.006 251.822ZM646.887 257.197C648.911 259.726 650.096 262.904 650.096 267.3H670.096C670.096 258.896 667.681 251.174 662.505 244.703L646.887 257.197ZM650.096 267.3C650.096 273.415 648.114 277.854 644.273 281.439L657.919 296.061C666.078 288.446 670.096 278.585 670.096 267.3H650.096ZM644.339 281.378C640.564 284.839 635.213 287 627.246 287V307C639.079 307 649.628 303.661 657.853 296.122L644.339 281.378ZM627.246 287H586.146V307H627.246V287ZM596.146 297V190.65H576.146V297H596.146ZM606.546 244.6H621.246V224.6H606.546V244.6ZM621.246 244.6C627.64 244.6 633.964 242.941 638.99 238.474L625.702 223.526C625.328 223.859 624.252 224.6 621.246 224.6V244.6ZM638.99 238.474C644.125 233.91 646.396 227.779 646.396 221.25H626.396C626.396 222.921 625.967 223.29 625.702 223.526L638.99 238.474ZM646.396 221.25C646.396 214.728 644.121 208.544 638.831 204.038L625.861 219.262C626.05 219.423 626.115 219.531 626.17 219.662C626.241 219.831 626.396 220.298 626.396 221.25H646.396ZM639.129 204.302C634.073 199.635 627.536 198.05 621.096 198.05V218.05C624.456 218.05 625.419 218.865 625.563 218.998L639.129 204.302ZM621.096 198.05H606.546V218.05H621.096V198.05ZM596.546 208.05V234.6H616.546V208.05H596.546ZM606.546 289.75H623.346V269.75H606.546V289.75ZM623.346 289.75C629.88 289.75 636.385 288.173 641.554 283.743L628.538 268.557C628.107 268.927 626.812 269.75 623.346 269.75V289.75ZM641.575 283.724C646.965 279.078 649.396 272.759 649.396 265.95H629.396C629.396 267.741 628.927 268.222 628.517 268.576L641.575 283.724ZM649.396 265.95C649.396 259.254 647.104 253.011 642.001 248.272L628.392 262.928C628.888 263.389 629.396 264.046 629.396 265.95H649.396ZM642.133 248.397C637.015 243.469 630.346 241.7 623.646 241.7V261.7C626.946 261.7 627.977 262.531 628.26 262.803L642.133 248.397ZM623.646 241.7H606.546V261.7H623.646V241.7ZM596.546 251.7V279.75H616.546V251.7H596.546ZM677.699 190.65V180.65H667.699V190.65H677.699ZM739.649 198.6L732.839 205.923L732.871 205.953L732.903 205.982L739.649 198.6ZM743.999 233.7L752.163 239.475L752.196 239.428L752.228 239.382L743.999 233.7ZM732.899 242.1L729.737 232.613L696.62 243.652L730.558 251.822L732.899 242.1ZM746.249 250.95L738.291 257.005L738.364 257.102L738.44 257.197L746.249 250.95ZM742.649 288.75L749.406 296.122L749.439 296.091L749.472 296.061L742.649 288.75ZM677.699 297H667.699V307H677.699V297ZM698.099 234.6H688.099V244.6H698.099V234.6ZM723.899 231L717.255 223.526L717.255 223.526L723.899 231ZM723.899 211.65L717.116 218.998L717.262 219.133L717.414 219.262L723.899 211.65ZM698.099 208.05V198.05H688.099V208.05H698.099ZM698.099 279.75H688.099V289.75H698.099V279.75ZM726.599 276.15L733.107 283.743L733.117 283.733L733.128 283.724L726.599 276.15ZM726.749 255.6L719.812 262.803L719.878 262.866L719.944 262.928L726.749 255.6ZM698.099 251.7V241.7H688.099V251.7H698.099ZM677.699 200.65H715.949V180.65H677.699V200.65ZM715.949 200.65C724.298 200.65 729.489 202.808 732.839 205.923L746.458 191.277C738.409 183.792 727.8 180.65 715.949 180.65V200.65ZM732.903 205.982C736.447 209.221 738.349 213.351 738.349 219.3H758.349C758.349 208.249 754.451 198.579 746.395 191.218L732.903 205.982ZM738.349 219.3C738.349 222.795 737.448 225.588 735.77 228.018L752.228 239.382C756.35 233.412 758.349 226.605 758.349 219.3H738.349ZM735.835 227.925C734.087 230.396 732.094 231.827 729.737 232.613L736.061 251.587C742.704 249.373 748.11 245.204 752.163 239.475L735.835 227.925ZM730.558 251.822C733.623 252.56 736.124 254.157 738.291 257.005L754.207 244.895C749.374 238.543 742.975 234.24 735.239 232.378L730.558 251.822ZM738.44 257.197C740.464 259.726 741.649 262.904 741.649 267.3H761.649C761.649 258.896 759.234 251.174 754.058 244.703L738.44 257.197ZM741.649 267.3C741.649 273.415 739.667 277.854 735.826 281.439L749.472 296.061C757.631 288.446 761.649 278.585 761.649 267.3H741.649ZM735.892 281.378C732.116 284.839 726.766 287 718.799 287V307C730.632 307 741.181 303.661 749.406 296.122L735.892 281.378ZM718.799 287H677.699V307H718.799V287ZM687.699 297V190.65H667.699V297H687.699ZM698.099 244.6H712.799V224.6H698.099V244.6ZM712.799 244.6C719.193 244.6 725.517 242.941 730.542 238.474L717.255 223.526C716.881 223.859 715.805 224.6 712.799 224.6V244.6ZM730.542 238.474C735.678 233.91 737.949 227.779 737.949 221.25H717.949C717.949 222.921 717.52 223.29 717.255 223.526L730.542 238.474ZM737.949 221.25C737.949 214.728 735.674 208.544 730.384 204.038L717.414 219.262C717.602 219.423 717.667 219.531 717.723 219.662C717.794 219.831 717.949 220.298 717.949 221.25H737.949ZM730.682 204.302C725.625 199.635 719.089 198.05 712.649 198.05V218.05C716.009 218.05 716.972 218.865 717.116 218.998L730.682 204.302ZM712.649 198.05H698.099V218.05H712.649V198.05ZM688.099 208.05V234.6H708.099V208.05H688.099ZM698.099 289.75H714.899V269.75H698.099V289.75ZM714.899 289.75C721.433 289.75 727.938 288.173 733.107 283.743L720.091 268.557C719.66 268.927 718.365 269.75 714.899 269.75V289.75ZM733.128 283.724C738.518 279.078 740.949 272.759 740.949 265.95H720.949C720.949 267.741 720.479 268.222 720.069 268.576L733.128 283.724ZM740.949 265.95C740.949 259.254 738.657 253.011 733.553 248.272L719.944 262.928C720.441 263.389 720.949 264.046 720.949 265.95H740.949ZM733.685 248.397C728.568 243.469 721.899 241.7 715.199 241.7V261.7C718.499 261.7 719.53 262.531 719.812 262.803L733.685 248.397ZM715.199 241.7H698.099V261.7H715.199V241.7ZM688.099 251.7V279.75H708.099V251.7H688.099ZM838.911 297L829.515 300.422L831.911 307H838.911V297ZM830.061 272.7L839.458 269.278L837.062 262.7H830.061V272.7ZM786.861 272.7V262.7H779.861L777.465 269.278L786.861 272.7ZM778.011 297V307H785.012L787.408 300.422L778.011 297ZM756.111 297L746.775 293.418L741.564 307H756.111V297ZM796.911 190.65V180.65H790.037L787.575 187.068L796.911 190.65ZM820.911 190.65L830.257 187.091L827.804 180.65H820.911V190.65ZM861.411 297V307H875.92L870.757 293.441L861.411 297ZM808.461 213.6L817.853 210.166L808.461 184.482L799.07 210.166L808.461 213.6ZM793.761 253.8L784.37 250.366L779.457 263.8H793.761V253.8ZM823.161 253.8V263.8H837.466L832.553 250.366L823.161 253.8ZM848.308 293.578L839.458 269.278L820.665 276.122L829.515 300.422L848.308 293.578ZM830.061 262.7H786.861V282.7H830.061V262.7ZM777.465 269.278L768.615 293.578L787.408 300.422L796.258 276.122L777.465 269.278ZM778.011 287H756.111V307H778.011V287ZM765.448 300.582L806.248 194.232L787.575 187.068L746.775 293.418L765.448 300.582ZM796.911 200.65H820.911V180.65H796.911V200.65ZM811.566 194.209L852.066 300.559L870.757 293.441L830.257 187.091L811.566 194.209ZM861.411 287H838.911V307H861.411V287ZM799.07 210.166L784.37 250.366L803.153 257.234L817.853 217.034L799.07 210.166ZM793.761 263.8H823.161V243.8H793.761V263.8ZM832.553 250.366L817.853 210.166L799.07 217.034L813.77 257.234L832.553 250.366ZM953.732 297V307H963.732V297H953.732ZM870.032 297H860.032V307H870.032V297ZM870.032 276.9L862.341 270.508L860.032 273.287V276.9H870.032ZM925.382 210.3L933.072 216.692L946.695 200.3H925.382V210.3ZM871.982 210.3H861.982V220.3H871.982V210.3ZM871.982 190.65V180.65H861.982V190.65H871.982ZM952.982 190.65H962.982V180.65H952.982V190.65ZM952.982 210L960.65 216.419L962.982 213.633V210H952.982ZM896.732 277.2L889.063 270.781L875.32 287.2H896.732V277.2ZM953.732 277.2H963.732V267.2H953.732V277.2ZM953.732 287H870.032V307H953.732V287ZM880.032 297V276.9H860.032V297H880.032ZM877.722 283.292L933.072 216.692L917.691 203.908L862.341 270.508L877.722 283.292ZM925.382 200.3H871.982V220.3H925.382V200.3ZM881.982 210.3V190.65H861.982V210.3H881.982ZM871.982 200.65H952.982V180.65H871.982V200.65ZM942.982 190.65V210H962.982V190.65H942.982ZM945.313 203.581L889.063 270.781L904.4 283.619L960.65 216.419L945.313 203.581ZM896.732 287.2H953.732V267.2H896.732V287.2ZM943.732 277.2V297H963.732V277.2H943.732Z" fill="black" mask="url(#path-1-outside-1_1_3)"/>
</g>
<defs>
<filter id="filter0_d_1_3" x="0.5" y="0.649994" width="957.232" height="304.35" filterUnits="userSpaceOnUse" color-interpolation-filters="sRGB">
<feFlood flood-opacity="0" result="BackgroundImageFix"/>
<feColorMatrix in="SourceAlpha" type="matrix" values="0 0 0 0 0 0 0 0 0 0 0 0 0 0 0 0 0 0 127 0" result="hardAlpha"/>
<feOffset dy="4"/>
<feGaussianBlur stdDeviation="2"/>
<feComposite in2="hardAlpha" operator="out"/>
<feColorMatrix type="matrix" values="0 0 0 0 0 0 0 0 0 0 0 0 0 0 0 0 0 0 0.25 0"/>
<feBlend mode="normal" in2="BackgroundImageFix" result="effect1_dropShadow_1_3"/>
<feBlend mode="normal" in="SourceGraphic" in2="effect1_dropShadow_1_3" result="shape"/>
</filter>
</defs>
</svg>
